<?xml version="1.0" standalone="no"?>
<!DOCTYPE svg PUBLIC "-//W3C//DTD SVG 20010904//EN"
 "http://www.w3.org/TR/2001/REC-SVG-20010904/DTD/svg10.dtd">
<svg version="1.0" xmlns="http://www.w3.org/2000/svg"
 width="512.000000pt" height="512.000000pt" viewBox="0 0 512.000000 512.000000"
 preserveAspectRatio="xMidYMid meet">

<g transform="translate(0.000000,512.000000) scale(0.100000,-0.100000)"
fill="#000000" stroke="none">
<path d="M4208 4898 c-21 -5 -58 -28 -82 -50 -68 -59 -76 -96 -76 -360 l0
-218 -216 0 c-125 0 -234 -5 -259 -11 -27 -7 -63 -28 -90 -51 -112 -98 -88
-275 46 -342 53 -26 54 -26 285 -26 l232 0 4 -242 3 -243 28 -47 c71 -121 234
-142 332 -44 59 60 65 90 65 350 l0 226 226 0 c260 0 290 6 350 65 98 98 77
261 -44 332 l-47 28 -242 3 -243 4 0 233 0 233 -28 53 c-46 89 -149 134 -244
107z"/>
<path d="M1905 4260 c-170 -26 -263 -79 -441 -252 -79 -77 -157 -144 -177
-153 -29 -12 -84 -15 -267 -15 -261 0 -329 -10 -445 -65 -125 -60 -228 -162
-291 -288 -73 -145 -69 -60 -69 -1362 l0 -1170 28 -82 c54 -161 169 -295 317
-373 144 -74 25 -70 1785 -70 1754 0 1639 -4 1785 68 110 54 223 168 279 282
72 148 71 128 71 1023 0 699 -2 802 -16 835 -33 79 -110 132 -194 132 -88 0
-152 -38 -193 -115 -22 -40 -22 -45 -27 -852 l-5 -811 -30 -44 c-17 -23 -51
-54 -75 -68 l-45 -25 -1551 0 -1551 0 -48 30 c-36 22 -57 45 -77 84 l-28 53 0
1109 c0 1215 -3 1148 58 1212 58 61 73 64 357 70 284 5 325 12 439 69 83 41
121 72 261 209 67 66 136 125 157 133 32 14 102 16 471 16 l433 0 53 26 c90
45 134 140 110 238 -16 67 -85 138 -151 154 -53 13 -837 15 -923 2z"/>
<path d="M2165 3184 c-388 -69 -703 -341 -831 -716 -55 -164 -68 -388 -30
-559 92 -418 436 -751 853 -824 656 -114 1253 383 1253 1045 0 177 -36 332
-113 485 -101 202 -298 393 -500 485 -200 90 -427 121 -632 84z m334 -429 c85
-20 204 -84 274 -146 71 -63 149 -179 176 -261 58 -179 49 -328 -31 -497 -57
-120 -169 -232 -289 -289 -169 -80 -318 -89 -497 -31 -82 27 -198 105 -261
176 -62 70 -126 189 -146 274 -19 82 -19 228 0 304 57 224 242 411 465 469 72
19 229 19 309 1z"/>
</g>
</svg>
