<?xml version="1.0" standalone="no"?>
<!DOCTYPE svg PUBLIC "-//W3C//DTD SVG 20010904//EN"
 "http://www.w3.org/TR/2001/REC-SVG-20010904/DTD/svg10.dtd">
<svg version="1.0" xmlns="http://www.w3.org/2000/svg"
 width="512.000000pt" height="512.000000pt" viewBox="0 0 512.000000 512.000000"
 preserveAspectRatio="xMidYMid meet">

<g transform="translate(0.000000,512.000000) scale(0.100000,-0.100000)"
fill="#000000" stroke="none">
<path d="M297 3263 c-4 -3 -7 -235 -7 -515 l0 -508 1280 0 1280 0 0 515 0 515
-1273 0 c-701 0 -1277 -3 -1280 -7z m2353 -258 l0 -35 -925 0 -925 0 0 28 c0
16 3 32 7 35 3 4 420 7 925 7 l918 0 0 -35z m0 -250 l0 -35 -925 0 -925 0 0
35 0 35 925 0 925 0 0 -35z m0 -250 l0 -35 -925 0 -925 0 0 35 0 35 925 0 925
0 0 -35z"/>
<path d="M3079 3260 c-12 -8 -14 -87 -17 -515 l-3 -505 119 0 c78 0 122 -4
130 -12 7 -7 12 -44 12 -95 l0 -83 469 0 469 0 11 33 c36 108 162 175 277 146
60 -15 148 -97 159 -148 7 -31 8 -32 53 -29 l47 3 8 50 c10 66 12 338 3 393
-5 27 -15 46 -28 53 -49 26 -182 40 -430 46 -169 4 -263 10 -273 17 -9 6 -21
31 -26 55 -32 145 -120 290 -227 376 -125 101 -338 181 -542 204 -167 18 -196
20 -211 11z m668 -230 c120 -79 206 -203 234 -339 20 -93 24 -91 -254 -91
-138 0 -236 4 -248 10 -18 10 -19 23 -19 223 0 152 3 216 12 225 8 8 48 12
113 12 l100 0 62 -40z"/>
<path d="M3540 2840 l0 -160 185 0 184 0 -13 38 c-39 109 -113 203 -201 253
-38 22 -63 29 -102 29 l-53 0 0 -160z"/>
<path d="M290 2105 l0 -55 69 0 c66 0 69 1 76 27 3 15 15 39 26 55 l20 28 -95
0 -96 0 0 -55z"/>
<path d="M579 2139 c-134 -80 -80 -282 75 -282 75 0 136 54 151 133 7 42 -26
113 -67 143 -40 30 -115 33 -159 6z m154 -59 c39 -44 38 -110 -2 -151 -58 -57
-169 -27 -186 51 -25 112 112 185 188 100z"/>
<path d="M623 2024 c-15 -39 38 -67 60 -32 8 12 7 21 -2 32 -17 21 -50 20 -58
0z"/>
<path d="M858 2105 c36 -74 58 -74 93 0 l25 55 -72 0 -72 0 26 -55z"/>
<path d="M1095 2146 c-42 -18 -83 -69 -91 -112 -8 -44 18 -116 53 -144 64 -50
153 -44 210 16 111 118 -23 305 -172 240z m110 -42 c104 -49 66 -204 -50 -204
-52 0 -91 28 -104 75 -11 42 -5 73 23 104 38 42 78 50 131 25z"/>
<path d="M1125 2019 c-10 -30 18 -58 43 -43 9 6 17 22 17 35 0 34 -50 41 -60
8z"/>
<path d="M1359 2106 l26 -55 235 0 235 -1 26 55 25 55 -286 0 -287 0 26 -54z"/>
<path d="M2025 2146 c-44 -19 -82 -68 -90 -116 -9 -54 26 -127 74 -154 93 -53
214 6 228 112 15 114 -106 204 -212 158z m110 -42 c33 -15 65 -64 65 -99 0
-25 -27 -72 -52 -89 -32 -23 -100 -20 -132 5 -76 60 -30 195 67 198 11 1 34
-6 52 -15z"/>
<path d="M2061 2026 c-15 -18 -8 -44 14 -52 21 -9 47 15 43 40 -4 26 -40 33
-57 12z"/>
<path d="M2289 2106 c35 -73 61 -76 93 -8 12 26 24 50 26 55 2 4 -30 7 -71 7
l-74 0 26 -54z"/>
<path d="M2520 2142 c-52 -26 -80 -74 -80 -138 0 -48 4 -58 36 -94 44 -48 92
-64 149 -49 76 21 120 83 113 159 -11 110 -120 172 -218 122z m120 -37 c35
-18 60 -62 60 -106 0 -22 -10 -41 -34 -65 -28 -28 -41 -34 -77 -34 -66 1 -109
44 -109 110 0 42 15 67 53 90 39 24 68 25 107 5z"/>
<path d="M2560 2021 c-7 -15 -6 -24 6 -36 9 -9 21 -14 27 -12 18 6 31 33 24
51 -9 22 -44 20 -57 -3z"/>
<path d="M2785 2124 c14 -20 25 -45 25 -55 0 -18 12 -19 220 -19 l220 0 0 55
0 55 -245 0 -244 0 24 -36z"/>
<path d="M4424 2146 c-37 -16 -69 -55 -84 -101 -24 -72 30 -164 108 -185 69
-18 151 21 178 86 53 127 -76 255 -202 200z m122 -45 c95 -58 52 -201 -61
-201 -63 0 -105 41 -105 103 0 93 88 146 166 98z"/>
<path d="M4461 2026 c-26 -31 14 -71 45 -45 8 7 14 22 12 33 -4 26 -40 33 -57
12z"/>
</g>
</svg>
