<?xml version="1.0" standalone="no"?>
<!DOCTYPE svg PUBLIC "-//W3C//DTD SVG 20010904//EN"
 "http://www.w3.org/TR/2001/REC-SVG-20010904/DTD/svg10.dtd">
<svg version="1.0" xmlns="http://www.w3.org/2000/svg"
 width="512.000000pt" height="512.000000pt" viewBox="0 0 512.000000 512.000000"
 preserveAspectRatio="xMidYMid meet">

<g transform="translate(0.000000,512.000000) scale(0.100000,-0.100000)"
fill="#000000" stroke="none">
<path d="M1352 4669 c-158 -27 -305 -102 -417 -213 -115 -114 -220 -290 -306
-511 -66 -173 -508 -1223 -544 -1295 -18 -36 -44 -99 -57 -140 -22 -71 -23
-89 -23 -345 0 -148 1 -292 1 -320 0 -27 0 -311 0 -630 l-1 -580 22 -41 c31
-58 79 -103 138 -130 49 -23 55 -24 381 -24 368 0 389 3 462 66 22 19 52 57
66 86 l26 52 0 288 0 288 1475 0 1474 0 3 -292 c3 -327 5 -335 78 -408 74 -74
76 -75 443 -78 327 -3 329 -3 380 21 61 28 109 73 140 131 22 41 22 42 22 616
0 316 -1 589 -2 605 -2 17 0 146 3 288 6 273 0 343 -38 447 -11 30 -24 72 -29
93 -5 20 -108 281 -228 580 -121 298 -238 594 -261 657 -168 461 -366 686
-680 776 -62 18 -129 19 -1270 20 -678 1 -1228 -2 -1258 -7z m2478 -362 c75
-29 149 -87 207 -161 58 -75 152 -258 198 -389 15 -42 99 -222 187 -399 87
-176 157 -322 156 -323 -2 -2 -37 6 -78 16 -41 11 -118 24 -170 29 -126 13
-3414 13 -3540 0 -52 -5 -122 -16 -154 -25 -32 -8 -60 -14 -62 -12 -2 1 69
142 158 312 88 171 185 371 215 445 128 319 236 458 399 510 57 18 105 19
1249 17 1114 -2 1193 -3 1235 -20z m-2561 -2092 c19 -11 48 -37 65 -58 28 -36
31 -45 31 -112 0 -67 -3 -77 -31 -112 -16 -21 -50 -48 -74 -60 -43 -22 -52
-23 -375 -23 l-331 0 -52 26 c-142 71 -142 267 0 338 l53 27 340 -3 c319 -3
342 -4 374 -23z m3303 15 c78 -22 138 -103 138 -185 0 -82 -60 -163 -138 -185
-53 -14 -659 -13 -703 2 -53 18 -88 46 -111 91 -51 98 -12 217 85 263 51 24
55 24 372 24 190 0 335 -4 357 -10z m-1223 -126 c44 -37 58 -91 36 -137 -9
-20 -32 -46 -50 -57 -32 -20 -48 -20 -751 -20 -686 0 -720 1 -750 19 -30 18
-64 74 -64 106 0 26 27 71 56 94 27 21 32 21 760 21 l732 0 31 -26z"/>
</g>
</svg>
