<?xml version="1.0" standalone="no"?>
<!DOCTYPE svg PUBLIC "-//W3C//DTD SVG 20010904//EN"
 "http://www.w3.org/TR/2001/REC-SVG-20010904/DTD/svg10.dtd">
<svg version="1.0" xmlns="http://www.w3.org/2000/svg"
 width="512.000000pt" height="512.000000pt" viewBox="0 0 512.000000 512.000000"
 preserveAspectRatio="xMidYMid meet">

<g transform="translate(0.000000,512.000000) scale(0.100000,-0.100000)"
fill="#000000" stroke="none">
<path d="M1325 4351 c-671 -417 -1237 -774 -1257 -794 -137 -133 -37 -368 156
-368 70 0 109 17 280 125 509 322 2044 1270 2056 1270 13 0 1648 -1010 2058
-1271 166 -106 208 -124 278 -124 194 0 293 234 155 369 -40 39 -2461 1546
-2489 1549 -10 1 -566 -339 -1237 -756z"/>
<path d="M710 926 l0 -395 -292 -3 c-286 -3 -294 -4 -330 -26 -66 -41 -82 -81
-86 -212 -3 -69 1 -133 8 -160 15 -54 63 -104 115 -119 57 -15 4813 -15 4870
0 52 15 100 65 115 119 7 27 11 91 8 160 -4 131 -20 171 -86 212 -36 22 -44
23 -329 26 l-293 3 0 395 0 394 -880 0 -880 0 0 -135 c0 -153 -9 -184 -60
-205 -24 -10 -36 -10 -60 0 -51 21 -60 52 -60 205 l0 135 -880 0 -880 0 0
-394z"/>
</g>
</svg>
