<?xml version="1.0" standalone="no"?>
<!DOCTYPE svg PUBLIC "-//W3C//DTD SVG 20010904//EN"
 "http://www.w3.org/TR/2001/REC-SVG-20010904/DTD/svg10.dtd">
<svg version="1.0" xmlns="http://www.w3.org/2000/svg"
 width="512.000000pt" height="512.000000pt" viewBox="0 0 512.000000 512.000000"
 preserveAspectRatio="xMidYMid meet">

<g transform="translate(0.000000,512.000000) scale(0.100000,-0.100000)"
fill="#000000" stroke="none">
<path d="M2500 5111 c-14 -4 -40 -15 -57 -24 -97 -51 -2324 -1343 -2353 -1366
-19 -15 -46 -48 -60 -72 l-25 -44 0 -1721 0 -1721 30 -49 c19 -30 49 -60 79
-79 l49 -30 2397 0 2397 0 49 30 c30 19 60 49 79 79 l30 49 0 1721 0 1721 -25
44 c-14 24 -41 57 -60 72 -32 25 -2267 1322 -2362 1370 -45 23 -129 33 -168
20z m1101 -1095 l1044 -603 3 -1472 2 -1471 -230 0 -230 0 0 1293 c0 1436 4
1350 -67 1420 -19 20 -51 44 -72 54 -34 17 -105 18 -1491 18 -1386 0 -1457 -1
-1491 -18 -21 -10 -53 -34 -72 -54 -71 -70 -67 16 -67 -1420 l0 -1293 -230 0
-230 0 2 1471 3 1472 1040 602 c572 332 1041 604 1041 604 1 1 471 -271 1045
-603z m119 -1456 l0 -230 -1160 0 -1160 0 0 230 0 230 1160 0 1160 0 0 -230z
m0 -930 l0 -230 -1160 0 -1160 0 0 230 0 230 1160 0 1160 0 0 -230z m0 -930
l0 -230 -1160 0 -1160 0 0 230 0 230 1160 0 1160 0 0 -230z"/>
</g>
</svg>
