<?xml version="1.0" standalone="no"?>
<!DOCTYPE svg PUBLIC "-//W3C//DTD SVG 20010904//EN"
 "http://www.w3.org/TR/2001/REC-SVG-20010904/DTD/svg10.dtd">
<svg version="1.0" xmlns="http://www.w3.org/2000/svg"
 width="512.000000pt" height="512.000000pt" viewBox="0 0 512.000000 512.000000"
 preserveAspectRatio="xMidYMid meet">

<g transform="translate(0.000000,512.000000) scale(0.100000,-0.100000)"
fill="#000000" stroke="none">
<path d="M2385 5114 c-16 -2 -73 -9 -125 -15 -314 -35 -649 -152 -933 -325
-74 -45 -221 -147 -251 -174 -11 -11 75 -120 91 -115 6 2 45 28 85 57 394 289
911 447 1393 425 575 -26 1085 -249 1490 -652 332 -330 535 -720 616 -1180 26
-153 36 -430 20 -586 -100 -971 -765 -1746 -1686 -1962 -187 -44 -315 -59
-515 -60 -194 0 -275 8 -480 50 -69 14 -136 28 -150 30 -23 4 -32 -8 -110
-146 -47 -83 -88 -150 -93 -148 -4 1 -122 200 -261 442 l-254 440 511 3 c280
1 512 0 515 -2 2 -3 -34 -72 -81 -153 -47 -81 -87 -154 -89 -162 -7 -30 274
-71 485 -71 417 1 788 120 1131 363 99 70 273 229 346 318 l40 46 -58 46 -59
46 -82 -90 c-283 -307 -661 -505 -1074 -564 -158 -23 -497 -18 -497 7 0 5 43
83 95 173 52 90 98 171 101 179 6 14 -49 16 -531 16 l-538 0 -131 132 c-156
158 -242 276 -335 458 -74 146 -126 294 -163 460 -19 91 -22 134 -22 325 -1
234 8 301 60 488 89 320 310 681 535 875 225 195 515 339 804 401 281 61 615
53 870 -20 184 -53 380 -147 535 -257 118 -83 305 -268 393 -387 409 -555 482
-1281 187 -1864 -27 -53 -64 -121 -84 -151 -39 -62 -39 -63 36 -112 l51 -32
16 23 c47 68 146 259 181 348 82 210 119 391 127 624 8 246 -20 446 -97 679
-186 566 -617 1024 -1155 1225 -213 79 -418 115 -665 115 -659 0 -1204 -277
-1586 -806 -80 -110 -211 -373 -259 -519 -213 -650 -86 -1347 337 -1850 42
-49 90 -103 108 -120 l31 -30 -124 -5 -125 -5 32 -55 c18 -30 50 -86 71 -125
l39 -70 -49 42 c-84 70 -249 244 -306 323 -205 281 -329 587 -386 952 -24 155
-24 488 0 648 54 352 174 669 355 934 76 113 129 176 239 289 l96 99 -55 54
-54 55 -93 -97 c-361 -377 -567 -813 -642 -1354 -20 -139 -17 -497 4 -641 59
-402 208 -761 437 -1058 125 -162 308 -333 581 -543 l85 -67 208 -360 c114
-199 211 -361 214 -361 4 0 63 97 131 216 109 190 126 215 145 210 11 -3 75
-14 140 -26 617 -106 1236 28 1746 378 598 410 952 1017 1020 1747 57 616
-139 1263 -522 1720 -461 551 -1147 871 -1853 863 -71 0 -143 -3 -160 -4z"/>
<path d="M1375 2849 c-132 -336 -241 -614 -243 -618 -1 -3 30 -18 68 -33 l71
-26 13 31 c7 18 35 89 62 160 l49 127 295 0 295 0 59 -156 c33 -85 62 -156 65
-158 12 -6 131 46 131 57 0 8 -368 967 -457 1190 l-15 37 -77 0 -77 0 -239
-611z m433 92 c62 -158 112 -291 112 -295 0 -3 -103 -6 -230 -6 -126 0 -230 3
-230 7 0 14 225 583 231 583 3 0 56 -130 117 -289z"/>
<path d="M2500 2815 l0 -645 310 0 310 0 0 75 0 75 -235 0 -235 0 0 570 0 570
-75 0 -75 0 0 -645z"/>
<path d="M3370 2815 l0 -645 310 0 310 0 0 75 0 75 -235 0 -235 0 0 570 0 570
-75 0 -75 0 0 -645z"/>
</g>
</svg>
