<?xml version="1.0" standalone="no"?>
<!DOCTYPE svg PUBLIC "-//W3C//DTD SVG 20010904//EN"
 "http://www.w3.org/TR/2001/REC-SVG-20010904/DTD/svg10.dtd">
<svg version="1.0" xmlns="http://www.w3.org/2000/svg"
 width="512.000000pt" height="512.000000pt" viewBox="0 0 512.000000 512.000000"
 preserveAspectRatio="xMidYMid meet">

<g transform="translate(0.000000,512.000000) scale(0.100000,-0.100000)"
fill="#000000" stroke="none">
<path d="M153 4010 c-68 -34 -106 -77 -134 -151 -18 -47 -19 -98 -19 -1019 0
-944 1 -971 20 -1023 45 -119 144 -177 303 -177 l93 0 11 67 c14 82 67 192
129 267 58 71 174 149 262 177 93 30 250 30 343 0 129 -41 257 -147 326 -269
33 -59 73 -181 73 -224 0 -17 40 -18 983 -18 l983 0 11 71 c23 146 131 303
264 382 225 133 510 100 693 -81 88 -87 166 -236 166 -319 0 -53 7 -55 141
-51 102 3 131 7 165 25 59 31 112 90 134 151 19 49 20 78 20 434 0 263 -4 393
-12 420 -16 55 -76 119 -139 150 -56 27 -183 73 -569 206 l-225 77 -105 177
c-58 97 -152 255 -209 352 -57 96 -125 201 -150 233 -78 97 -164 141 -316 163
-44 6 -655 10 -1626 10 l-1556 0 -60 -30z m3348 -261 c22 -11 349 -659 349
-690 0 -9 -7 -20 -16 -23 -9 -3 -298 -6 -643 -6 -474 0 -630 3 -639 12 -17 17
-17 689 0 706 16 16 919 17 949 1z m1543 -1295 c26 -26 26 -29 26 -164 0 -135
0 -138 -26 -164 l-27 -26 -177 0 -177 0 -27 26 c-26 26 -26 29 -26 164 0 135
0 138 26 164 l27 26 177 0 177 0 27 -26z"/>
<path d="M910 2110 c-134 -20 -257 -95 -341 -207 -158 -209 -135 -489 55 -676
161 -158 414 -194 605 -85 306 174 363 574 118 820 -116 115 -281 171 -437
148z m166 -174 c61 -16 95 -36 152 -90 145 -136 140 -376 -9 -510 -104 -93
-256 -117 -380 -59 -78 37 -144 100 -178 173 -36 75 -37 210 -4 283 77 167
246 249 419 203z"/>
<path d="M4015 2109 c-88 -13 -210 -76 -279 -145 -206 -206 -209 -519 -6 -724
107 -109 224 -160 367 -160 324 0 576 304 510 616 -58 273 -316 453 -592 413z
m239 -198 c118 -58 188 -166 194 -302 3 -63 0 -86 -20 -136 -31 -76 -70 -125
-133 -167 -67 -44 -117 -60 -195 -60 -119 0 -225 55 -290 149 -44 64 -62 120
-62 200 0 263 270 432 506 316z"/>
</g>
</svg>
